<svg id="Layer_1" xmlns="//www.w3.org/2000/svg" viewBox="0 0 369 106">
  <g id="Group" transform="translate(75 54)">
    <g className="st0" style={{enableBackground: 'new'}}>
      <path className="st1" style={{fill: '#fff'}} d="M-74.4-30h20.9c8.1 0 14.2 1.2 18.1 3.6 4 2.4 5.9 6.2 5.9 11.3 0 3.4-.9 6.2-2.6 8.6s-4 3.9-6.8 4.6v.4c3.7 1 6.4 2.6 8.1 4.9s2.5 5.3 2.5 8.9c0 5.4-2 9.7-6.1 12.9-4.1 3.1-9.7 4.7-16.7 4.7h-23.3V-30zm16.2 23h4.9c2.3 0 4.1-.5 5.4-1.4s1.9-2.4 1.9-4.3c0-3.4-2.5-5-7.6-5h-4.6V-7zm0 11.9v12.6h5.7c5.1 0 7.6-2.1 7.6-6.4 0-2-.7-3.5-2-4.6s-3.3-1.6-5.9-1.6h-5.4zM17.8 30h-35.6v-60h35.6v13H-1.6v9.4h18v13h-18v11.3h19.4V30zM65 30l-3-11.2H42.5l-3 11.2H21.7l19.6-60.2H63L82.8 30H65zM58.7 5.5l-2.6-9.8c-.6-2.2-1.3-5-2.2-8.5s-1.4-6-1.7-7.5c-.2 1.4-.7 3.7-1.5 6.9-.7 3.2-2.3 9.5-4.8 18.9h12.8zM115.9-17.5c-3.9 0-6.9 1.6-9 4.7-2.2 3.2-3.2 7.5-3.2 13.1 0 11.5 4.4 17.3 13.2 17.3 2.7 0 5.2-.4 7.7-1.1s5-1.6 7.5-2.7v13.7c-5 2.2-10.7 3.3-17 3.3-9.1 0-16-2.6-20.8-7.9-4.8-5.2-7.2-12.8-7.2-22.8 0-6.2 1.2-11.7 3.5-16.4s5.7-8.3 10.1-10.8 9.5-3.8 15.5-3.8c6.5 0 12.7 1.4 18.6 4.2l-5 12.8c-2.2-1-4.4-1.9-6.6-2.6s-4.7-1-7.3-1z" />
    </g>
    <g className="st0" style={{enableBackground: 'new'}}>
      <path className="st1" style={{fill: '#fff'}} d="M294.4 30h-21.2l-21.9-42.2h-.4c.5 6.6.8 11.7.8 15.2v27h-14.4v-60h21.2l21.8 41.7h.2c-.4-6-.6-10.9-.6-14.6V-30h14.4v60h.1z" />
    </g>
      <path id="Fill-1" d="M186.4 10.5c-10.5 0-19.1-8.5-19.1-19s8.5-19 19.1-19 19.1 8.5 19.1 19-8.5 19-19.1 19m39.7-22.6c0-22.1-18-40.1-40.2-40.1s-40.2 17.9-40.2 40.1v2.4c0 35 40.2 61.7 40.2 61.7s40.2-27.2 40.2-61.7v-1.2c-.1-.4 0-.8 0-1.2" fill="#6b65fd" />
      <path id="Fill-3" d="M171.6 3.4c-6-9.4-3.6-21.6 5.3-27.2s21-2.4 26.9 7l.9 1.5 21.5-13.5-.9-1.5c-13.9-22-42-29.4-62.8-16.3S136.1-5.2 150 16.9c.3.5.6 1 1 1.5l21.5-13.5-.9-1.5" fill="#f65c5a" />
  </g>
</svg>