<?xml version="1.0" encoding="utf-8"?>
<!-- Generator: Adobe Illustrator 21.0.2, SVG Export Plug-In . SVG Version: 6.00 Build 0)  -->
<svg version="1.1" id="Layer_1" xmlns="http://www.w3.org/2000/svg" xmlns:xlink="http://www.w3.org/1999/xlink" x="0px" y="0px"
	 viewBox="0 0 48 48" style="enable-background:new 0 0 48 48;" xml:space="preserve">
<style type="text/css">
	.st0{fill-rule:evenodd;clip-rule:evenodd;}
</style>
<path class="st0" d="M30,23.1c0,3.4-2.9,6.1-6.5,6.1S17,26.5,17,23.1S20,17,23.5,17S30,19.7,30,23.1z M33.7,31.4l-3.5-3.3
	c1.2-1.5,1.9-3.2,1.9-5c0-4.5-3.8-8.1-8.5-8.1S15,18.6,15,23.1s3.8,8.1,8.5,8.1c1.9,0,3.8-0.6,5.2-1.8l3.5,3.3
	c0.2,0.2,0.4,0.3,0.7,0.3c0.3,0,0.5-0.1,0.7-0.3C34.1,32.3,34.1,31.7,33.7,31.4z"/>
</svg>
